# Blender v2.82 (sub 7) OBJ File: ''
# www.blender.org
mtllib wheelbarrow  obj.mtl
o wheelbarrow__Mesh
v -0.157010 0.123892 0.001408
v -0.157932 0.123460 0.021658
v -0.142697 0.191380 -0.001314
v -0.144057 0.190744 0.028536
v -0.194445 0.181663 -0.003879
v -0.195805 0.181027 0.025971
v -0.224136 0.138165 -0.006159
v -0.225496 0.137529 0.023691
v -0.214377 0.086366 -0.006818
v -0.215737 0.085730 0.023032
v -0.170885 0.056609 -0.005470
v -0.172245 0.055973 0.024380
v -0.119137 0.066325 -0.002905
v -0.120497 0.065689 0.026945
v -0.089446 0.109824 -0.000625
v -0.090807 0.109187 0.029225
v -0.099205 0.161623 0.000034
v -0.100565 0.160987 0.029883
v -0.147139 0.170143 -0.001969
v -0.182578 0.163489 -0.003725
v -0.202912 0.133699 -0.005287
v -0.196229 0.098224 -0.005738
v -0.166443 0.077845 -0.004815
v -0.131004 0.084500 -0.003058
v -0.110670 0.114289 -0.001497
v -0.117353 0.149764 -0.001046
v -0.148499 0.169507 0.027881
v -0.183938 0.162853 0.026124
v -0.204272 0.133063 0.024563
v -0.197589 0.097588 0.024112
v -0.167803 0.077209 0.025035
v -0.132364 0.083863 0.026791
v -0.112030 0.113653 0.028353
v -0.118713 0.149128 0.028804
v -0.147357 0.170041 0.002831
v -0.182797 0.163387 0.001075
v -0.203131 0.133597 -0.000486
v -0.196447 0.098122 -0.000938
v -0.166662 0.077743 -0.000015
v -0.131222 0.084397 0.001742
v -0.110889 0.114187 0.003303
v -0.117572 0.149662 0.003754
v -0.148280 0.169610 0.023081
v -0.183720 0.162955 0.021324
v -0.204053 0.133165 0.019763
v -0.197370 0.097690 0.019311
v -0.167585 0.077311 0.020234
v -0.132145 0.083966 0.021991
v -0.111811 0.113756 0.023552
v -0.118495 0.149230 0.024004
v -0.155509 0.124593 -0.031524
v -0.159646 0.122659 0.059276
v -0.153994 0.131838 -0.031300
v -0.158131 0.129903 0.059500
v -0.159557 0.130793 -0.031576
v -0.163694 0.128858 0.059224
v -0.162749 0.126117 -0.031821
v -0.166886 0.124182 0.058979
v -0.161700 0.120548 -0.031892
v -0.165837 0.118614 0.058908
v -0.157024 0.117349 -0.031747
v -0.161162 0.115415 0.059053
v -0.151461 0.118394 -0.031471
v -0.155599 0.116459 0.059329
v -0.148269 0.123070 -0.031226
v -0.152407 0.121136 0.059574
v -0.149319 0.128639 -0.031155
v -0.153456 0.126704 0.059644
v -0.033980 0.100180 0.069704
v -0.055374 0.149555 0.066351
v -0.032281 0.100327 0.061026
v -0.053675 0.149702 0.057673
v -0.172806 0.110410 0.033680
v -0.174505 0.110263 0.042358
v -0.173407 0.148114 0.043214
v -0.171708 0.148261 0.034536
v -0.176371 0.123532 0.033204
v -0.163445 0.104712 0.035416
v -0.162035 0.153324 0.036516
v -0.176027 0.135403 0.033472
v -0.165144 0.104564 0.044094
v -0.178070 0.123385 0.041882
v -0.177726 0.135256 0.042150
v -0.163734 0.153177 0.045194
v -0.030528 0.102268 -0.026987
v -0.052209 0.151491 -0.023275
v -0.031516 0.102495 -0.035773
v -0.053197 0.151718 -0.032060
v -0.173816 0.111644 -0.019535
v -0.172828 0.111416 -0.010749
v -0.171730 0.149267 -0.009893
v -0.172718 0.149495 -0.018678
v -0.177431 0.124740 -0.018789
v -0.164335 0.106008 -0.020747
v -0.162924 0.154621 -0.019647
v -0.177086 0.136610 -0.018521
v -0.163347 0.105781 -0.011961
v -0.176443 0.124512 -0.010004
v -0.176098 0.136383 -0.009735
v -0.161936 0.154393 -0.010861
v 0.529533 0.109262 0.232050
v 0.304587 0.151220 0.193876
v 0.530724 0.109264 0.223891
v 0.305778 0.151223 0.185717
v 0.529182 0.103559 0.226104
v 0.304236 0.145518 0.187930
v 0.527846 0.101195 0.231801
v 0.302899 0.143153 0.193627
v 0.527498 0.103556 0.237643
v 0.302552 0.145514 0.199469
v 0.528342 0.109259 0.240209
v 0.303396 0.151218 0.202035
v 0.529884 0.114964 0.237995
v 0.304938 0.156923 0.199821
v 0.531220 0.117329 0.232298
v 0.306274 0.159288 0.194124
v 0.531568 0.114968 0.226456
v 0.306622 0.156927 0.188282
v 0.527881 0.120739 -0.128950
v 0.299935 0.161885 -0.120404
v 0.527744 0.121022 -0.137189
v 0.299797 0.162168 -0.128643
v 0.526591 0.115235 -0.134952
v 0.298644 0.156380 -0.126406
v 0.526194 0.112672 -0.129198
v 0.298248 0.153817 -0.120652
v 0.526786 0.114835 -0.123299
v 0.298839 0.155980 -0.114753
v 0.528019 0.120456 -0.120710
v 0.300073 0.161602 -0.112164
v 0.529172 0.126244 -0.122948
v 0.301226 0.167389 -0.114401
v 0.529569 0.128806 -0.128701
v 0.301622 0.169952 -0.120155
v 0.528977 0.126644 -0.134600
v 0.301031 0.167789 -0.126054
v 0.196759 0.058956 0.109500
v 0.313768 0.166773 0.183551
v 0.204109 0.062393 -0.051804
v 0.327156 0.173033 -0.110263
v -0.022518 0.110080 -0.061114
v -0.087154 0.259188 -0.094035
v -0.029867 0.106643 0.100190
v -0.097518 0.254342 0.133406
v 0.198551 0.043889 0.124167
v 0.318789 0.153029 0.209416
v 0.207256 0.047959 -0.066875
v 0.334534 0.160391 -0.136125
v -0.030012 0.097885 -0.076622
v -0.097205 0.250033 -0.114759
v -0.038717 0.093815 0.114420
v -0.109393 0.244333 0.152723
vt 0.663678 0.262884
vt 0.661929 0.261940
vt 0.661183 0.259620
vt 0.661159 0.257493
vt 0.661852 0.255157
vt 0.663578 0.254173
vt 0.683359 0.253947
vt 0.687622 0.262611
vt 0.736127 0.266394
vt 0.737082 0.268136
vt 0.736951 0.292081
vt 0.728262 0.287871
vt 0.728370 0.268089
vt 0.729344 0.266356
vt 0.731676 0.265650
vt 0.733803 0.265661
vt 0.718194 0.289133
vt 0.717395 0.290952
vt 0.715144 0.291884
vt 0.713026 0.292081
vt 0.710641 0.291580
vt 0.709520 0.289940
vt 0.707689 0.270242
vt 0.715977 0.265290
vt 0.726960 0.264969
vt 0.727925 0.266707
vt 0.727926 0.290652
vt 0.719214 0.286489
vt 0.719213 0.266707
vt 0.720177 0.264970
vt 0.722505 0.264250
vt 0.724633 0.264250
vt 0.683405 0.264872
vt 0.687730 0.269677
vt 0.679767 0.272496
vt 0.596604 0.264011
vt 0.596564 0.258658
vt 0.606004 0.258587
vt 0.606045 0.263939
vt 0.657225 0.264269
vt 0.660458 0.272073
vt 0.652654 0.268841
vt 0.676949 0.264533
vt 0.599492 0.280105
vt 0.594140 0.280145
vt 0.594068 0.270706
vt 0.599420 0.270665
vt 0.663690 0.264269
vt 0.672144 0.268858
vt 0.599564 0.289545
vt 0.594211 0.289585
vt 0.668262 0.268840
vt 0.671804 0.275314
vt 0.615657 0.286658
vt 0.615698 0.292010
vt 0.606258 0.292081
vt 0.606217 0.286729
vt 0.668262 0.275306
vt 0.676130 0.280119
vt 0.625097 0.286586
vt 0.625138 0.291938
vt 0.663691 0.279877
vt 0.682586 0.280459
vt 0.622210 0.270492
vt 0.627563 0.270452
vt 0.627634 0.279892
vt 0.622282 0.279932
vt 0.657226 0.279878
vt 0.687391 0.276133
vt 0.622139 0.261052
vt 0.627491 0.261012
vt 0.652654 0.275306
vt 0.615444 0.258515
vt 0.615485 0.263867
vt 0.603023 0.272125
vt 0.607559 0.267519
vt 0.603072 0.278590
vt 0.607678 0.283127
vt 0.614143 0.283078
vt 0.618679 0.278472
vt 0.618630 0.272007
vt 0.614024 0.267470
vt 0.642167 0.267258
vt 0.643627 0.263656
vt 0.650352 0.270280
vt 0.646773 0.271795
vt 0.650424 0.279720
vt 0.646821 0.278260
vt 0.643799 0.286445
vt 0.642285 0.282865
vt 0.634359 0.286517
vt 0.635820 0.282914
vt 0.631214 0.278377
vt 0.631165 0.271912
vt 0.634187 0.263726
vt 0.635702 0.267306
vt 0.688069 0.263221
vt 0.688929 0.263266
vt 0.688590 0.269722
vt 0.676994 0.263673
vt 0.683450 0.264012
vt 0.670492 0.264193
vt 0.670537 0.263334
vt 0.670945 0.275269
vt 0.671284 0.268813
vt 0.671465 0.281770
vt 0.670606 0.281725
vt 0.682541 0.281318
vt 0.676085 0.280979
vt 0.689043 0.280798
vt 0.688998 0.281658
vt 0.688251 0.276178
vt 0.650761 0.264268
vt 0.650761 0.263407
vt 0.657225 0.263408
vt 0.663690 0.263408
vt 0.670155 0.263408
vt 0.670155 0.264269
vt 0.669123 0.268840
vt 0.669123 0.275305
vt 0.669123 0.281770
vt 0.668262 0.281770
vt 0.663691 0.280738
vt 0.657226 0.280738
vt 0.650761 0.280741
vt 0.650760 0.279880
vt 0.651793 0.275306
vt 0.651793 0.268841
vt 0.691409 0.263039
vt 0.690692 0.262322
vt 0.691917 0.261814
vt 0.691409 0.279320
vt 0.690394 0.279320
vt 0.690394 0.263039
vt 0.691917 0.280545
vt 0.690692 0.280038
vt 0.692424 0.263039
vt 0.692424 0.279320
vt 0.693142 0.262322
vt 0.693439 0.263039
vt 0.693439 0.279320
vt 0.693142 0.280038
vt 0.693142 0.261307
vt 0.694454 0.263039
vt 0.694454 0.279320
vt 0.693142 0.281053
vt 0.692424 0.260589
vt 0.695469 0.263039
vt 0.695469 0.279320
vt 0.692424 0.281770
vt 0.691409 0.260589
vt 0.696483 0.263039
vt 0.696484 0.279320
vt 0.691409 0.281770
vt 0.690692 0.261307
vt 0.697498 0.263039
vt 0.697498 0.279320
vt 0.690692 0.281053
vt 0.689380 0.279320
vt 0.689379 0.263039
vt 0.684781 0.253248
vt 0.689043 0.261911
vt 0.737494 0.265749
vt 0.737500 0.267876
vt 0.739084 0.267872
vt 0.739078 0.265745
vt 0.739147 0.292077
vt 0.739095 0.272296
vt 0.737511 0.272300
vt 0.737563 0.292081
vt 0.739066 0.261321
vt 0.739003 0.237375
vt 0.737419 0.237379
vt 0.737482 0.261325
vt 0.739090 0.270309
vt 0.737506 0.270313
vt 0.737488 0.263312
vt 0.739071 0.263308
vt 0.727243 0.292081
vt 0.718531 0.287918
vt 0.620404 0.258117
vt 0.618277 0.258122
vt 0.618273 0.256539
vt 0.620401 0.256534
vt 0.594068 0.256595
vt 0.613850 0.256549
vt 0.613853 0.258133
vt 0.594072 0.258178
vt 0.624824 0.256523
vt 0.648770 0.256467
vt 0.648774 0.258051
vt 0.624828 0.258107
vt 0.615837 0.256544
vt 0.615840 0.258128
vt 0.622841 0.258112
vt 0.622837 0.256528
vt 0.695808 0.291968
vt 0.695032 0.291146
vt 0.696412 0.290621
vt 0.694984 0.283237
vt 0.653440 0.283397
vt 0.653453 0.282267
vt 0.694998 0.282107
vt 0.652666 0.292081
vt 0.652141 0.290701
vt 0.653488 0.291306
vt 0.696937 0.292001
vt 0.695001 0.284367
vt 0.653457 0.284527
vt 0.651536 0.292048
vt 0.697760 0.291226
vt 0.695041 0.285497
vt 0.653496 0.285657
vt 0.650760 0.291226
vt 0.697793 0.290096
vt 0.695082 0.286626
vt 0.653538 0.286786
vt 0.650794 0.290096
vt 0.697017 0.289274
vt 0.695105 0.287756
vt 0.653560 0.287916
vt 0.651616 0.289321
vt 0.695888 0.289241
vt 0.695097 0.288886
vt 0.653552 0.289046
vt 0.652746 0.289354
vt 0.695065 0.290016
vt 0.653521 0.290176
vt 0.704091 0.290107
vt 0.704909 0.289327
vt 0.705442 0.290704
vt 0.703779 0.289288
vt 0.703962 0.247780
vt 0.705092 0.247819
vt 0.702474 0.245799
vt 0.701118 0.246384
vt 0.701663 0.245011
vt 0.704064 0.291237
vt 0.702649 0.289257
vt 0.702833 0.247748
vt 0.702490 0.246929
vt 0.704845 0.292055
vt 0.701519 0.289248
vt 0.701703 0.247740
vt 0.705975 0.292081
vt 0.700389 0.289265
vt 0.700572 0.247756
vt 0.706792 0.291301
vt 0.699260 0.289293
vt 0.699443 0.247785
vt 0.699762 0.246969
vt 0.706819 0.290171
vt 0.698130 0.289315
vt 0.698313 0.247807
vt 0.699745 0.245839
vt 0.706038 0.289353
vt 0.706222 0.247845
vt 0.707352 0.247847
vt 0.707169 0.289355
vt 0.700533 0.245028
vt 0.693894 0.315724
vt 0.693752 0.368407
vt 0.664688 0.356449
vt 0.664765 0.327526
vt 0.681665 0.382897
vt 0.605866 0.380461
vt 0.623181 0.356337
vt 0.594068 0.362188
vt 0.594178 0.321406
vt 0.623258 0.327414
vt 0.606074 0.303197
vt 0.681885 0.301169
vt 0.726168 0.359280
vt 0.696350 0.373052
vt 0.696517 0.311093
vt 0.726260 0.325025
vt 0.769624 0.359397
vt 0.787459 0.384211
vt 0.708448 0.386934
vt 0.769716 0.325142
vt 0.799514 0.318369
vt 0.799386 0.366330
vt 0.708688 0.297277
vt 0.787684 0.300424
vt 0.786360 0.388511
vt 0.710593 0.391804
vt 0.802115 0.321965
vt 0.802006 0.362747
vt 0.710860 0.292418
vt 0.786608 0.296118
vn 0.1921 0.0166 -0.9812
vn -0.1921 -0.0166 0.9812
vn -0.1117 0.0257 -0.9934
vn 0.1117 -0.0257 0.9934
vn 0.0455 0.0213 -0.9987
vn -0.1851 0.9826 0.0125
vn -0.0455 -0.0213 0.9987
vn -0.8250 0.5645 -0.0256
vn -0.9817 -0.1843 -0.0487
vn -0.5632 -0.8252 -0.0432
vn 0.1851 -0.9826 -0.0125
vn 0.8250 -0.5645 0.0256
vn 0.9817 0.1843 0.0487
vn 0.5632 0.8252 0.0432
vn -0.9817 -0.1843 -0.0486
vn 0.8976 0.4013 0.1826
vn -0.9743 -0.1168 -0.1928
vn -0.9656 0.1817 -0.1860
vn 0.0290 0.9993 0.0226
vn -0.2178 0.9756 -0.0261
vn -0.2739 -0.9592 -0.0699
vn -0.0290 -0.9993 -0.0226
vn -0.4507 0.8897 -0.0732
vn -0.5013 -0.8579 -0.1127
vn -0.9286 0.3265 -0.1763
vn -0.9457 -0.2638 -0.1897
vn 0.9087 0.4072 -0.0916
vn -0.9865 -0.1233 0.1077
vn -0.9778 0.1752 0.1145
vn -0.2209 0.9740 0.0501
vn -0.2770 -0.9608 0.0063
vn -0.4567 0.8865 0.0743
vn -0.5074 -0.8610 0.0348
vn -0.9404 0.3203 0.1140
vn -0.9576 -0.2701 0.1007
vn 0.9681 -0.2068 0.1412
vn 0.0853 -0.3804 -0.9209
vn -0.9681 0.2068 -0.1412
vn -0.1016 -0.9101 -0.4016
vn -0.2291 -0.9071 0.3530
vn -0.2224 -0.3724 0.9010
vn -0.9681 0.2069 -0.1412
vn -0.0853 0.3804 0.9209
vn 0.1016 0.9101 0.4016
vn 0.2291 0.9071 -0.3530
vn 0.2224 0.3724 -0.9010
vn 0.9787 -0.2040 -0.0234
vn -0.0968 -0.3421 -0.9347
vn -0.9787 0.2040 0.0234
vn -0.1769 -0.8945 -0.4106
vn -0.1533 -0.9227 0.3537
vn -0.0400 -0.4108 0.9109
vn 0.0968 0.3421 0.9347
vn 0.1769 0.8945 0.4106
vn 0.1533 0.9227 -0.3537
vn 0.0400 0.4108 -0.9109
vn -0.6724 0.7400 -0.0149
vn 0.0591 0.2923 0.9545
vn 0.9123 0.4065 0.0502
vn 0.1554 0.3774 -0.9129
vn 0.2046 0.9784 0.0302
vn 0.6664 -0.7455 0.0145
vn -0.0715 -0.3307 -0.9410
vn -0.9089 -0.4140 -0.0502
vn -0.1678 -0.4189 0.8924
vn -0.1677 -0.4189 0.8924
vn -0.2046 -0.9784 -0.0302
vn 0.9039 0.4248 0.0502
vn 0.1655 0.8887 -0.4276
vn -0.6575 0.7533 -0.0139
vn 0.1243 0.8686 0.4797
vn 0.1242 0.8686 0.4797
usemtl Material.001
s 1
f 78/1/1 73/2/1 77/3/1 80/4/1 76/5/1 79/6/1 72/7/1 71/8/1
f 74/9/2 81/10/2 69/11/2 70/12/2 84/13/2 75/14/2 83/15/2 82/16/2
f 94/17/3 89/18/3 93/19/3 96/20/3 92/21/3 95/22/3 88/23/3 87/24/3
f 90/25/4 97/26/4 85/27/4 86/28/4 100/29/4 91/30/4 99/31/4 98/32/4
f 36/33/5 35/34/5 1/35/5
f 5/36/6 6/37/6 4/38/6 3/39/6
f 44/40/7 2/41/7 43/42/7
f 37/43/5 36/33/5 1/35/5
f 7/44/8 8/45/8 6/46/8 5/47/8
f 45/48/7 2/41/7 44/40/7
f 38/49/5 37/43/5 1/35/5
f 9/50/9 10/51/9 8/45/9 7/44/9
f 46/52/7 2/41/7 45/48/7
f 39/53/5 38/49/5 1/35/5
f 11/54/10 12/55/10 10/56/10 9/57/10
f 47/58/7 2/41/7 46/52/7
f 40/59/5 39/53/5 1/35/5
f 13/60/11 14/61/11 12/55/11 11/54/11
f 48/62/7 2/41/7 47/58/7
f 41/63/5 40/59/5 1/35/5
f 15/64/12 16/65/12 14/66/12 13/67/12
f 49/68/7 2/41/7 48/62/7
f 42/69/5 41/63/5 1/35/5
f 17/70/13 18/71/13 16/65/13 15/64/13
f 50/72/7 2/41/7 49/68/7
f 35/34/5 42/69/5 1/35/5
f 3/39/14 4/38/14 18/73/14 17/74/14
f 43/42/7 2/41/7 50/72/7
f 20/75/5 5/47/5 3/39/5 19/76/5
f 21/77/5 7/44/5 5/47/5 20/75/5
f 22/78/5 9/57/5 7/44/5 21/77/5
f 23/79/5 11/54/5 9/57/5 22/78/5
f 24/80/5 13/67/5 11/54/5 23/79/5
f 25/81/5 15/64/5 13/67/5 24/80/5
f 26/82/5 17/74/5 15/64/5 25/81/5
f 19/76/5 3/39/5 17/74/5 26/82/5
f 27/83/7 4/84/7 6/85/7 28/86/7
f 28/86/7 6/85/7 8/87/7 29/88/7
f 29/88/7 8/87/7 10/89/7 30/90/7
f 30/90/7 10/89/7 12/91/7 31/92/7
f 31/92/7 12/91/7 14/66/7 32/93/7
f 32/93/7 14/66/7 16/65/7 33/94/7
f 33/94/7 16/65/7 18/95/7 34/96/7
f 34/96/7 18/95/7 4/84/7 27/83/7
f 36/97/11 20/98/11 19/99/11 35/34/11
f 37/43/12 21/100/12 20/101/12 36/33/12
f 38/102/13 22/103/13 21/100/13 37/43/13
f 39/53/14 23/104/14 22/105/14 38/49/14
f 40/106/6 24/107/6 23/104/6 39/53/6
f 41/63/8 25/108/8 24/109/8 40/59/8
f 42/110/15 26/111/15 25/108/15 41/63/15
f 35/34/10 19/99/10 26/112/10 42/69/10
f 43/113/11 27/114/11 28/115/11 44/40/11
f 44/40/12 28/115/12 29/116/12 45/48/12
f 45/48/13 29/116/13 30/117/13 46/118/13
f 46/52/14 30/119/14 31/120/14 47/58/14
f 47/58/6 31/120/6 32/121/6 48/122/6
f 48/62/8 32/123/8 33/124/8 49/68/8
f 49/68/9 33/124/9 34/125/9 50/126/9
f 50/72/10 34/127/10 27/128/10 43/42/10
f 55/129/5 53/130/5 51/131/5
f 55/129/6 56/132/6 54/133/6 53/134/6
f 56/132/7 52/135/7 54/136/7
f 57/137/5 55/129/5 51/131/5
f 57/137/8 58/138/8 56/132/8 55/129/8
f 58/138/7 52/135/7 56/132/7
f 59/139/5 57/137/5 51/131/5
f 59/140/9 60/141/9 58/138/9 57/137/9
f 60/142/7 52/135/7 58/138/7
f 61/143/5 59/139/5 51/131/5
f 61/144/10 62/145/10 60/141/10 59/140/10
f 62/146/7 52/135/7 60/142/7
f 63/147/5 61/143/5 51/131/5
f 63/148/11 64/149/11 62/145/11 61/144/11
f 64/150/7 52/135/7 62/146/7
f 65/151/5 63/147/5 51/131/5
f 65/152/12 66/153/12 64/149/12 63/148/12
f 66/154/7 52/135/7 64/150/7
f 67/155/5 65/151/5 51/131/5
f 67/156/13 68/157/13 66/153/13 65/152/13
f 68/158/7 52/135/7 66/154/7
f 53/130/5 67/155/5 51/131/5
f 53/134/14 54/133/14 68/159/14 67/160/14
f 54/136/7 52/135/7 68/158/7
f 71/8/16 72/7/16 70/161/16 69/162/16
f 82/163/17 83/164/18 80/165/18 77/166/17
f 72/167/19 79/168/20 84/169/20 70/170/19
f 78/171/21 71/172/22 69/173/22 81/174/21
f 76/175/23 75/176/23 84/169/20 79/168/20
f 74/177/24 73/178/24 78/171/21 81/174/21
f 76/175/25 80/165/18 83/164/18 75/176/25
f 74/177/26 82/163/17 77/166/17 73/178/26
f 87/179/27 88/180/27 86/28/27 85/27/27
f 98/181/28 99/182/29 96/183/29 93/184/28
f 88/185/19 95/186/30 100/187/30 86/188/19
f 94/189/31 87/190/22 85/191/22 97/192/31
f 92/193/32 91/194/32 100/187/30 95/186/30
f 90/195/33 89/196/33 94/189/31 97/192/31
f 92/193/34 96/183/29 99/182/29 91/194/34
f 90/195/35 98/181/28 93/184/28 89/196/35
f 105/197/36 103/198/36 101/199/36
f 105/200/37 106/201/37 104/202/37 103/203/37
f 106/204/38 102/205/38 104/206/38
f 107/207/36 105/197/36 101/199/36
f 107/208/39 108/209/39 106/201/39 105/200/39
f 108/210/38 102/205/38 106/204/38
f 109/211/36 107/207/36 101/199/36
f 109/212/40 110/213/40 108/209/40 107/208/40
f 110/214/38 102/205/38 108/210/38
f 111/215/36 109/211/36 101/199/36
f 111/216/41 112/217/41 110/213/41 109/212/41
f 112/218/42 102/205/38 110/214/38
f 113/219/36 111/215/36 101/199/36
f 113/220/43 114/221/43 112/217/43 111/216/43
f 114/222/42 102/205/38 112/218/42
f 115/223/36 113/219/36 101/199/36
f 115/224/44 116/225/44 114/221/44 113/220/44
f 116/226/38 102/205/38 114/222/42
f 117/227/36 115/223/36 101/199/36
f 117/227/45 118/228/45 116/225/45 115/224/45
f 118/228/42 102/205/38 116/226/38
f 103/198/36 117/227/36 101/199/36
f 103/198/46 104/206/46 118/228/46 117/227/46
f 104/206/38 102/205/38 118/228/42
f 123/229/47 121/230/47 119/231/47
f 123/232/48 124/233/48 122/234/48 121/230/48
f 124/235/49 120/236/49 122/237/49
f 125/238/47 123/229/47 119/231/47
f 125/239/50 126/240/50 124/233/50 123/232/50
f 126/241/49 120/236/49 124/235/49
f 127/242/47 125/238/47 119/231/47
f 127/243/51 128/244/51 126/240/51 125/239/51
f 128/244/49 120/236/49 126/241/49
f 129/245/47 127/242/47 119/231/47
f 129/246/52 130/247/52 128/244/52 127/243/52
f 130/247/49 120/236/49 128/244/49
f 131/248/47 129/245/47 119/231/47
f 131/249/53 132/250/53 130/247/53 129/246/53
f 132/251/49 120/236/49 130/247/49
f 133/252/47 131/248/47 119/231/47
f 133/253/54 134/254/54 132/250/54 131/249/54
f 134/255/49 120/236/49 132/251/49
f 135/256/47 133/252/47 119/231/47
f 135/256/55 136/257/55 134/258/55 133/259/55
f 136/260/49 120/236/49 134/255/49
f 121/230/47 135/256/47 119/231/47
f 121/230/56 122/234/56 136/257/56 135/256/56
f 122/237/49 120/236/49 136/260/49
f 138/261/57 140/262/57 139/263/57 137/264/57
f 140/265/58 142/266/58 141/267/58 139/263/58
f 142/268/59 144/269/59 143/270/59 141/267/59
f 144/271/60 138/272/60 137/264/60 143/270/60
f 137/264/61 139/263/61 141/267/61 143/270/61
f 147/273/62 148/274/62 146/275/62 145/276/62
f 149/277/63 150/278/63 148/279/63 147/273/63
f 151/280/64 152/281/64 150/282/64 149/277/64
f 145/276/65 146/283/65 152/284/66 151/280/66
f 149/277/67 147/273/67 145/276/67 151/280/67
f 148/274/68 140/262/68 138/261/68 146/275/68
f 150/278/69 142/285/69 140/286/69 148/279/69
f 152/281/70 144/287/70 142/288/70 150/282/70
f 146/283/71 138/289/71 144/290/72 152/284/72
